<svg xmlns="http://www.w3.org/2000/svg" viewBox="0 0 62.54 47.77"><path fill="#1e64c8" d="M10.278 16.372h1.246V8.274h-1.246zm-2.493 0h1.246V8.274H7.785Zm-2.496 0h1.246V8.274H5.289Zm-2.492 0h1.246V8.274H2.797Zm9.977 0h1.246V8.274h-1.246zm2.492 0h1.246V8.274h-1.246zm2.496 0h1.246V8.274h-1.246ZM1.52 18.868h18.766v-1.25H1.52Zm17.488-11.84H2.797l-1.25-1.246h18.707ZM.274 21.36h21.258v-1.246H.274ZM21.532 3.766 10.903 0 .274 3.766v1.32l10.629-3.762 10.629 3.762Zm16.386 23.489c.555-.004 1.07.18 1.312.367v-1.125c-.242-.148-.824-.309-1.422-.309-1.652 0-2.566.941-2.566 2.305 0 1.141.484 1.684 1.262 2.355l.711.613c.582.492.949.867.949 1.602 0 .855-.566 1.199-1.418 1.199-.645 0-1.18-.18-1.488-.395v1.145c.27.156.836.316 1.598.316 1.652-.004 2.562-.941 2.566-2.309 0-1.137-.484-1.684-1.258-2.355l-.711-.613c-.59-.504-.953-.863-.949-1.598 0-.863.562-1.199 1.414-1.199M.274 32.509v-6.16H1.52v6.215c0 1.301.449 1.68 1.355 1.68.91 0 1.355-.379 1.355-1.68v-6.215h1.25v6.16c0 2.008-.84 2.82-2.605 2.82-1.789 0-2.602-.789-2.602-2.82m6.821-6.161h1.438l2.781 7.027a18.684 18.684 0 0 1-.176-2.348v-4.68h1.195v8.816h-1.438l-2.809-7.055c.105.723.203 1.578.203 2.375v4.68H7.093Zm7.004 8.817h1.246v-8.816h-1.246zm2.406-8.817h1.305l1.109 4.586c.164.691.367 1.855.492 2.781.121-.926.324-2.09.512-2.781l1.102-4.586h1.262l-2.238 8.816h-1.305zm6.938 0h4.125v1.059h-2.875v2.699h2.32v1.043h-2.32v2.957h2.875v1.059h-4.125zm6.816 1.059v3.109h.664c.977 0 1.629-.207 1.629-1.562 0-1.344-.652-1.547-1.629-1.547zm-1.25-1.059h2.035c1.629 0 2.797.613 2.797 2.605 0 1.395-.68 2.074-1.535 2.387l1.871 3.824h-1.422l-1.656-3.594h-.84v3.594h-1.25v-8.816m11.895 8.817h1.246v-8.816h-1.246zm2.433-8.817h5.059v1.059h-1.914v7.758h-1.246v-7.758h-1.898zm6.203 0h4.121v1.059h-2.875v2.699h2.32v1.043h-2.32v2.957h2.875v1.059h-4.121zm5.551 8.817h1.246v-8.816H55.09Zm2.391-8.817h5.059v1.059h-1.914v7.758H59.38v-7.758h-1.898ZM0 43.2c0-3.473.922-4.57 3.215-4.57.652 0 1.344.176 1.641.352v1.152c-.324-.188-.949-.395-1.547-.395-1.465 0-2.02.543-2.02 3.461 0 2.887.395 3.484 1.668 3.484.395 0 .719-.051.965-.121v-2.941H2.617v-1.059h2.551v4.762c-.258.16-1.289.445-2.195.445C.582 47.77 0 46.524 0 43.2m6.657-4.41h4.125v1.059H7.907v2.699h2.32v1.043h-2.32v2.961h2.875v1.055H6.657Zm5.566 0h1.438l2.781 7.027a18.684 18.684 0 0 1-.176-2.348v-4.68h1.195v8.816h-1.438l-2.809-7.051c.105.719.203 1.574.203 2.371v4.68h-1.195zm6.379 0h5.059v1.059h-1.91v7.758h-1.25v-7.758h-1.898z"/></svg>
