<svg xmlns="http://www.w3.org/2000/svg" viewBox="0 0 65.21 56.69"><defs/><defs><clipPath id="a"><path d="M0 0h306v266H0z"/></clipPath></defs><g clip-path="url(#a)" transform="matrix(.21342 0 0 -.21342 0 56.77)"><path fill="#1e64c8" d="M57.15 219.98h6.93v-45.02h-6.93zm-13.87 0h6.94v-45.02h-6.94zm-13.87 0h6.93v-45.02h-6.93zm-13.87 0h6.94v-45.02h-6.94zm55.48 0h6.93v-45.02h-6.93zm13.87 0h6.93v-45.02H84.9zm13.87 0h6.93v-45.02h-6.93zM8.44 168.02H112.8v-6.94H8.44zm97.25 58.9H15.54l-6.93 6.93h104.02l-6.94-6.94M1.51 154.16h118.22v-6.94H1.5zm118.22 90.91L60.62 266 1.5 245.07v-7.37l59.1 20.93 59.12-20.93v7.37M58.89 92.7H43.97V70.45h-6.94v49.03h6.94V98.6H58.9v20.9h6.93V70.44H58.9V92.7m151.96-47.43c3.06 0 5.95-1 7.28-2.04v6.25c-1.33.81-4.58 1.72-7.89 1.72-9.2 0-14.27-5.23-14.27-12.82 0-6.34 2.68-9.38 7-13.1l3.95-3.41c3.26-2.73 5.28-4.83 5.28-8.91 0-4.77-3.16-6.66-7.88-6.66-3.59 0-6.56 1-8.28 2.18V2.12c1.51-.87 4.66-1.76 8.9-1.75 9.18.02 14.25 5.24 14.26 12.82 0 6.33-2.69 9.38-7 13.1l-3.94 3.41c-3.27 2.8-5.3 4.82-5.29 8.9.02 4.78 3.14 6.65 7.88 6.67m-42.61-.86V27.13h3.7c5.42 0 9.05 1.14 9.05 8.68 0 7.47-3.63 8.6-9.05 8.6zm-6.94 5.89h11.32c9.05 0 15.53-3.4 15.53-14.49 0-7.77-3.77-11.54-8.52-13.27l10.42-21.27h-7.93l-9.2 19.98h-4.68V1.27h-6.94V50.3M1.51 16.05V50.3h6.94V15.74c0-7.24 2.49-9.34 7.54-9.34s7.54 2.1 7.54 9.34V50.3h6.94V16.05C30.47 4.88 25.8.35 16 .35 6.03.36 1.5 4.74 1.5 16.06M39.45 50.3h8L62.9 11.22c-.53 4-.98 8.67-.98 13.05v26.02h6.63V1.27h-8l-15.6 39.21c.6-3.99 1.13-8.74 1.13-13.2V1.27h-6.64v49.02m38.94 0h6.94V1.27h-6.94zm13.4 0h7.23l6.18-25.5a184.2 184.2 0 002.72-15.46c.68 5.14 1.81 11.62 2.87 15.47l6.1 25.5h7.02L111.47 1.26h-7.24L91.78 50.29m38.58 0h22.93v-5.88H137.3V29.4h12.9v-5.81h-12.9V7.14h16V1.27h-22.94v49.02m97.08 0h6.95V1.27h-6.94zM0 94.96c0 19.31 5.13 25.43 17.88 25.43 3.61 0 7.46-.98 9.12-1.97v-6.4a18.99 18.99 0 01-8.6 2.18c-8.15 0-11.24-3.02-11.24-19.24 0-16.06 2.2-19.38 9.28-19.38 2.19 0 4 .3 5.36.68v16.37h-7.25v5.88h14.19V72.03c-1.43-.9-7.17-2.49-12.22-2.49C3.24 69.54 0 76.48 0 94.96m75.66 24.52h22.93v-5.88h-16V98.59H95.5v-5.8H82.6V76.33h16v-5.9H75.65v49.04m30.95 0h8l15.46-39.07c-.53 4-.98 8.68-.98 13.05v26.02h6.63V70.45h-8l-15.61 39.23a92 92 0 001.14-13.2V70.45h-6.64v49.03m35.47 0h28.14v-5.88h-10.64V70.45h-6.94v43.15h-10.56v5.88m143.2-97.85l-13.43 28.66h7.61l5.81-13.2a76.86 76.86 0 003.48-9.58c.9 3.02 2.26 6.42 3.62 9.58l5.8 13.2h7.4l-13.35-28.66V1.27h-6.95v20.36m-44.3 28.66h28.14v-5.88h-10.63V1.27h-6.94V44.4h-10.56v5.88"/></g></svg>
